<svg width="24" height="24" viewBox="0 0 24 24" fill="none" xmlns="http://www.w3.org/2000/svg">
  <path d="M12 3C11.7348 3 11.4804 3.10536 11.2929 3.29289L5.29289 9.29289C4.90237 9.68342 4.90237 10.3166 5.29289 10.7071C5.68342 11.0976 6.31658 11.0976 6.70711 10.7071L11 6.41421V20C11 20.5523 11.4477 21 12 21C12.5523 21 13 20.5523 13 20V6.41421L17.2929 10.7071C17.6834 11.0976 18.3166 11.0976 18.7071 10.7071C19.0976 10.3166 19.0976 9.68342 18.7071 9.29289L12.7071 3.29289C12.5196 3.10536 12.2652 3 12 3Z" fill="#279EAE"/>
  <path d="M4 14C4 13.4477 3.55228 13 3 13C2.44772 13 2 13.4477 2 14V19C2 20.6569 3.34315 22 5 22H19C20.6569 22 22 20.6569 22 19V14C22 13.4477 21.5523 13 21 13C20.4477 13 20 13.4477 20 14V19C20 19.5523 19.5523 20 19 20H5C4.44772 20 4 19.5523 4 19V14Z" fill="#434344"/>
</svg>